HIERARCHY
ROOT Hips
{
     OFFSET 29.93890 93.63630 -15.76970
     CHANNELS 6 Xposition Yposition Zposition Zrotation Xrotation Yrotation
     JOINT Spine
     {
          OFFSET -0.00000 11.89050 -0.00000
          CHANNELS 3 Zrotation Xrotation Yrotation
          JOINT Spine1
          {
               OFFSET -0.00000 25.65740 0.12766
               CHANNELS 3 Zrotation Xrotation Yrotation
               JOINT HEad
               {
                    OFFSET 0.00000 8.73416 0.01134
                    CHANNELS 3 Zrotation Xrotation Yrotation
                    End Site
                    {
                         OFFSET -0.29000 12.77420 2.51395
                    }
               }
               JOINT LeftShoulder1
               {
                    OFFSET 8.99000 -0.36225 -0.22000
                    CHANNELS 3 Zrotation Xrotation Yrotation
                    JOINT LeftArm
                    {
                         OFFSET 10.28270 -0.00338 0.32212
                         CHANNELS 3 Zrotation Xrotation Yrotation
                         JOINT LeftForeArm
                         {
                              OFFSET 32.76690 0.09914 -1.42434
                              CHANNELS 3 Zrotation Xrotation Yrotation
                              JOINT LeftHand
                              {
                                   OFFSET 27.56430 0.08536 1.02216
                                   CHANNELS 3 Zrotation Xrotation Yrotation
                                   End Site
                                   {
                                        OFFSET 16.74430 -0.60000 1.50291
                                   }
                              }
                         }
                    }
               }
               JOINT RightShoulder
               {
                    OFFSET -8.99000 -0.36225 -0.22000
                    CHANNELS 3 Zrotation Xrotation Yrotation
                    JOINT RightArm
                    {
                         OFFSET -10.28270 -0.00338 0.32212
                         CHANNELS 3 Zrotation Xrotation Yrotation
                         JOINT RightForeArm
                         {
                              OFFSET -32.89710 0.09914 -1.42434
                              CHANNELS 3 Zrotation Xrotation Yrotation
                              JOINT RightHand
                              {
                                   OFFSET -27.49210 0.08536 1.02216
                                   CHANNELS 3 Zrotation Xrotation Yrotation
                                   End Site
                                   {
                                        OFFSET -16.63120 -0.60000 1.50291
                                   }
                              }
                         }
                    }
               }
          }
     }
     JOINT LeftUpLeg
     {
          OFFSET 8.94580 -8.66707 0.10165
          CHANNELS 3 Zrotation Xrotation Yrotation
          JOINT LeftLeg
          {
               OFFSET -0.00000 -44.42270 1.37270
               CHANNELS 3 Zrotation Xrotation Yrotation
               JOINT LeftFoot
               {
                    OFFSET -0.25355 -42.09240 -1.46059
                    CHANNELS 3 Zrotation Xrotation Yrotation
                    JOINT LeftToes
                    {
                         OFFSET -0.04000 -4.41509 8.49910
                         CHANNELS 3 Zrotation Xrotation Yrotation
                         End Site
                         {
                              OFFSET 0.08000 -0.04745 9.77979
                         }
                    }
               }
          }
     }
     JOINT RightUpLeg
     {
          OFFSET -8.94580 -8.66707 0.10165
          CHANNELS 3 Zrotation Xrotation Yrotation
          JOINT RightLeg
          {
               OFFSET -0.00000 -44.42270 1.37270
               CHANNELS 3 Zrotation Xrotation Yrotation
               JOINT RightFoot
               {
                    OFFSET 0.25355 -42.09240 -1.46059
                    CHANNELS 3 Zrotation Xrotation Yrotation
                    JOINT RightToes
                    {
                         OFFSET 0.04000 -4.41509 8.49910
                         CHANNELS 3 Zrotation Xrotation Yrotation
                         End Site
                         {
                              OFFSET -0.08000 -0.13745 9.77979
                         }
                    }
               }
          }
     }
}
MOTION
Frames: 14
Frame Time: 0.01667
47.97500 92.97450 27.27380 -14.79800 -4.70203 -81.19040 -0.68939 15.84330 -1.69815 9.61677 31.54510 -7.85273 -19.73940 -7.97877 28.42900 -0.00000 0.00000 -0.00000 -19.82830 -35.61060 -66.46860 -19.50400 54.68230 -110.68400 5.77574 9.48878 -5.03273 -0.32029 0.31755 2.58492 75.73790 10.64240 101.57700 -7.12478 26.46010 92.97030 3.57387 10.46930 10.96710 23.49190 7.75988 -13.55840 -32.32500 14.28630 76.59450 -5.06441 4.89562 0.50901 -2.14861 -37.48870 -68.83880 -39.92970 -1.39748 10.38260 44.82620 4.88461 -30.30430 -22.11890 15.98060 4.58591 1.69421 -18.81720 4.31756 
47.98730 93.14290 27.62220 -14.70420 -4.38890 -80.83890 -0.35943 15.64250 -1.23660 10.14900 31.16190 -6.90355 -19.66170 -7.15785 27.04040 -0.00000 0.00000 -0.00000 -18.00850 -41.03370 -61.42480 -18.88880 54.21560 -111.33500 5.31813 9.55665 -4.25522 -0.64823 0.28321 2.00984 76.64610 10.79000 101.27500 -7.22439 26.29110 92.24220 3.50253 10.44800 10.64560 23.64020 7.50137 -13.61020 -32.41510 14.24730 76.64810 -4.85442 4.77066 0.48151 -1.98931 -37.32700 -68.38740 -40.15050 -1.30445 9.95469 44.67000 4.93608 -28.88350 -21.28000 17.81260 4.76225 1.77868 -19.31420 5.17799 
47.94840 93.39170 27.76480 -14.66520 -3.99414 -80.05490 0.25240 15.45670 -0.75241 10.78950 30.78330 -5.82068 -19.21030 -6.31825 25.18500 -0.00000 0.00000 -0.00000 -17.41730 -47.36910 -57.54390 -24.42080 55.52130 -106.46600 5.52934 9.51305 -4.92768 -0.47310 0.23619 0.66829 77.53090 11.32540 100.87600 -7.43006 26.13790 91.94800 3.39011 10.42470 10.40370 24.15400 7.20957 -13.87940 -32.49950 13.96470 76.49520 -4.74455 4.97911 0.47692 -1.69293 -36.88470 -67.90870 -40.26070 -1.44644 9.46213 44.73150 5.90550 -27.73640 -20.49820 19.78170 4.95208 1.93155 -20.27890 5.92746 
47.83240 93.67760 27.72380 -14.63520 -3.62178 -79.00750 0.89623 15.20600 -0.43247 11.20320 30.25250 -4.97703 -18.33470 -5.52472 23.80660 -0.00000 0.00000 -0.00000 -16.85210 -54.21590 -53.43580 -32.08800 56.79970 -99.37930 6.36415 9.40035 -5.86898 -0.24348 0.23108 0.42529 78.87470 11.34510 99.93030 -7.73698 25.98240 92.12500 3.21366 10.39490 10.19100 24.87470 6.89309 -14.33330 -32.60580 13.50470 76.22420 -4.76626 5.47093 0.49665 -1.33773 -36.26310 -67.54920 -40.39240 -1.64039 9.19895 44.99610 7.25591 -27.24780 -19.95530 21.04480 5.04950 2.02172 -20.81020 6.33579 
47.62260 93.94840 27.54110 -14.59160 -3.32790 -77.83840 1.45587 14.87690 -0.15432 11.29300 29.57650 -4.13194 -17.15940 -4.78039 22.67950 -0.00000 0.00000 -0.00000 -16.66860 -61.17800 -49.66930 -41.22760 57.53310 -90.54260 7.69025 9.18628 -7.47237 0.27160 0.25972 0.83164 80.42230 10.94420 98.55480 -8.02942 25.88180 92.71140 2.97684 10.35970 10.02010 25.65550 6.56569 -14.90880 -32.71950 12.96610 75.93860 -4.86044 6.08245 0.52949 -1.00288 -35.61010 -67.36930 -40.63450 -1.76396 9.33003 45.41330 8.59115 -27.70840 -19.69940 21.10000 4.99368 1.99306 -20.55830 6.50551 
47.31650 94.15490 27.25770 -14.52450 -3.14285 -76.61730 1.83769 14.48760 0.15986 11.09880 28.80950 -3.18322 -15.85790 -4.20085 21.61340 -0.00000 0.00000 -0.00000 -17.77300 -67.87470 -47.15550 -50.02430 57.36900 -81.64770 9.32008 8.86075 -9.58387 1.00668 0.31020 1.47339 82.03180 10.28430 97.00990 -8.23927 25.85010 93.54810 2.72567 10.32570 9.92490 26.37000 6.21547 -15.49950 -32.79720 12.49010 75.69600 -4.94225 6.61815 0.55899 -0.73330 -35.03980 -67.34150 -41.03410 -1.69707 9.90622 45.84770 9.57451 -29.02260 -19.64130 20.06450 4.79211 1.85500 -19.57870 6.53944 
46.93430 94.27620 26.90320 -14.43830 -3.07485 -75.35560 2.01127 14.07070 0.52837 10.75120 28.01360 -2.16161 -14.60460 -3.90025 20.53200 -0.00000 0.00000 -0.00000 -22.30260 -74.00930 -47.84810 -56.70670 56.53610 -74.45940 11.17700 8.43213 -11.79470 1.69588 0.36878 2.13902 83.67210 9.48558 95.53630 -8.31746 25.87410 94.45250 2.52545 10.30040 9.89982 26.94070 5.83698 -15.97480 -32.77680 12.17720 75.46790 -4.94206 6.97477 0.57208 -0.54454 -34.62190 -67.37500 -41.59500 -1.31305 10.95700 46.11620 9.87334 -30.71880 -19.68520 18.58500 4.53642 1.63060 -18.01140 6.36107 
46.50370 94.30660 26.47350 -14.35540 -3.12400 -74.03060 1.95400 13.65780 0.93641 10.37330 27.23830 -1.16298 -13.57380 -3.89987 19.47020 -0.00000 0.00000 -0.00000 -35.42060 -79.23620 -56.72520 -61.07570 55.52870 -69.32830 13.18080 7.93103 -13.76470 2.13270 0.42477 2.79659 85.29970 8.60333 94.28880 -8.25031 25.93600 95.28980 2.41700 10.28680 9.88911 27.36510 5.42093 -16.19500 -32.62070 12.12020 75.13210 -4.86510 7.21082 0.57078 -0.44499 -34.40640 -67.37540 -42.30270 -0.53698 12.55680 46.11510 9.25213 -32.27020 -19.85130 17.39440 4.35961 1.35078 -15.97910 5.86402 
46.04680 94.24490 25.93390 -14.29330 -3.30659 -72.59520 1.61830 13.26810 1.36164 10.01300 26.50730 -0.28242 -12.90860 -4.09121 18.49020 -0.00000 0.00000 -0.00000 -67.49540 -82.36940 -84.14060 -64.06750 54.59270 -65.58790 15.09990 7.41916 -15.36100 2.34556 0.47438 3.43657 86.77940 7.68277 93.33730 -8.09579 26.01740 96.01690 2.40744 10.28400 9.83236 27.68660 4.93281 -16.07330 -32.33930 12.39090 74.55570 -4.74544 7.53279 0.56657 -0.46861 -34.47000 -67.33440 -43.17300 0.64261 14.76870 45.86260 7.63525 -33.32030 -20.18260 16.93160 4.34886 1.05010 -13.56200 5.09919 
45.57390 94.08940 25.24840 -14.25270 -3.64874 -71.00680 0.98330 12.91450 1.78188 9.64896 25.83280 0.42378 -12.61430 -4.29385 17.60900 -0.00000 0.00000 -0.00000 -108.54500 -81.38010 -120.28300 -66.30440 53.77630 -62.84790 16.68760 6.96637 -16.57750 2.47914 0.51722 3.99840 87.99510 6.78292 92.67950 -8.00776 26.09490 96.69590 2.47736 10.28900 9.70382 27.95830 4.32722 -15.64810 -31.98670 12.99170 73.69180 -4.58493 8.16436 0.56660 -0.66852 -34.89390 -67.36130 -44.24930 2.19196 17.55540 45.43240 5.11342 -33.73660 -20.60130 17.21200 4.49394 0.72589 -10.60660 4.29625 
45.06000 93.76420 24.35300 -14.18270 -4.26941 -69.30210 -0.21338 12.61080 2.25426 9.16213 25.23480 0.95537 -12.52950 -4.37902 16.82920 -0.00000 0.00000 -0.00000 -131.00101 -77.63470 -137.82800 -67.74840 53.18040 -61.23800 17.88030 6.61379 -17.41190 2.60078 0.55226 4.43278 88.96750 5.93761 92.26190 -8.12919 26.15490 97.42400 2.56973 10.29480 9.51828 28.12270 3.49726 -15.01700 -31.67410 14.06370 72.60400 -4.50032 9.14766 0.58734 -1.05699 -35.64770 -67.60550 -45.45420 3.31716 20.45850 44.99070 3.41042 -33.91290 -20.50990 17.30150 4.49027 0.33715 -6.77148 3.69372 
44.50510 93.28000 23.30480 -14.11740 -5.00048 -67.53110 -1.59178 12.36610 2.71906 8.59782 24.72350 1.36274 -12.43110 -4.32894 16.17640 -0.00000 0.00000 -0.00000 -141.56900 -73.28270 -143.69099 -68.23650 52.96760 -60.87660 18.81470 6.35400 -17.88210 2.71385 0.57970 4.74784 89.77660 5.13820 92.00870 -8.41272 26.21140 98.20840 2.60477 10.29340 9.32292 28.35120 2.45462 -14.39460 -31.47080 15.50060 71.42930 -4.53762 10.32740 0.63205 -1.58101 -36.57370 -68.12970 -46.50800 4.07394 23.25880 44.39440 2.58879 -33.91220 -19.83310 16.96770 4.27833 -0.11854 -2.04604 3.27055 
43.92280 92.77130 22.19340 -14.08320 -5.72945 -65.76950 -2.76523 12.16860 3.11296 7.97117 24.28580 1.71685 -12.16200 -4.20084 15.66890 -0.00000 0.00000 -0.00000 -147.27800 -69.04630 -145.00900 -67.78050 53.24330 -61.62070 19.69310 6.14307 -18.08450 2.86163 0.60402 4.97819 90.43580 4.37906 91.85470 -8.64777 26.28740 98.94240 2.54847 10.28270 9.18340 28.70840 1.52320 -14.03690 -31.30760 16.62340 70.28670 -4.48487 11.56500 0.66443 -2.14828 -37.48790 -68.83920 -47.41560 4.95911 25.96990 43.53390 1.66669 -33.59000 -19.01440 16.46960 4.01145 -0.54037 2.89492 2.76569 
43.30860 92.25660 21.03600 -14.08990 -6.41266 -64.08510 -3.71917 12.00290 3.45244 7.31521 23.90140 2.06243 -11.70250 -4.06024 15.29330 -0.00000 0.00000 -0.00000 -150.67599 -65.17090 -144.34900 -66.61490 53.94470 -63.12690 20.61780 5.93996 -18.17000 3.10678 0.63142 5.15889 90.90630 3.68658 91.76960 -8.68279 26.38110 99.52000 2.45745 10.27090 9.14085 29.16500 0.73240 -14.07660 -31.16800 17.36760 69.31770 -4.42922 12.65750 0.69049 -2.64405 -38.22160 -69.54460 -48.14780 5.97981 28.46640 42.44270 0.62932 -32.93150 -18.27220 15.82010 3.74319 -0.77485 6.92986 1.98685 
